<?xml version="1.0" encoding="utf-8"?>
<svg width="770px" height="125px" viewBox="0 0 770 125" version="1.1" xmlns:xlink="http://www.w3.org/1999/xlink" xmlns="http://www.w3.org/2000/svg">
  <desc>Created with Lunacy</desc>
  <defs>
    <path d="M0 0L105 0L105 125L0 125L0 0Z" id="path_1" />
    <clipPath id="mask_1">
      <use xlink:href="#path_1" />
    </clipPath>
  </defs>
  <path d="M0 0L770 0L770 124L0 124L0 0Z" id="Rectangle" fill="#6089B3" stroke="none" />
  <g id="Group-14" transform="translate(23 35)" opacity="0.758882046">
    <path d="M36.4016 29.5472L1.28483 29.5472C0.575244 29.5472 0 28.9697 0 28.2561L0 1.29106C0 0.577481 0.575244 0 1.28483 0C1.99564 0 2.56967 0.577481 2.56967 1.29106L2.56967 26.9675L35.118 26.9675L35.118 1.29106C35.118 0.577481 35.6908 0 36.4016 0C37.1112 0 37.6852 0.577481 37.6852 1.29106L37.6852 28.2561C37.6852 28.9697 37.1112 29.5472 36.4016 29.5472" transform="translate(9.166667 24.45283)" id="Fill-1" fill="#FFFFFF" stroke="none" />
    <path d="M2.52568 12.7563L12.7509 12.7563L12.7509 2.52674L2.52568 2.52674L2.52568 12.7563ZM14.0143 15.283L1.26344 15.283C0.565666 15.283 0 14.7183 0 14.0202L0 1.26277C0 0.564703 0.565666 0 1.26344 0L14.0143 0C14.7121 0 15.2778 0.564703 15.2778 1.26277L15.2778 14.0202C15.2778 14.7183 14.7121 15.283 14.0143 15.283L14.0143 15.283Z" transform="translate(20.37037 27.50943)" id="Fill-3" fill="#FFFFFF" stroke="none" />
    <path d="M1.3214 16.3019C0.590919 16.3019 0 15.7776 0 15.1309L0 1.17094C0 0.524252 0.590919 0 1.3214 0L8.86253 0C9.59301 0 10.1852 0.524252 10.1852 1.17094L10.1852 9.13266C10.1852 9.78046 9.59301 10.3036 8.86253 10.3036C8.13206 10.3036 7.54114 9.78046 7.54114 9.13266L7.54114 2.34188L2.64405 2.34188L2.64405 15.1309C2.64405 15.7776 2.05313 16.3019 1.3214 16.3019" transform="translate(9.166667 2.664535E-14)" id="Fill-5" fill="#FFFFFF" stroke="none" />
    <path d="M27.5001 8.15011C27.8018 8.15011 28.1036 8.25622 28.345 8.47207L49.733 27.505L52.17 24.7701L27.5001 2.76123L2.8301 24.7701L5.26595 27.505L26.6563 8.47207C26.8965 8.25622 27.1983 8.15011 27.5001 8.15011M49.838 30.5654C49.529 30.5654 49.2272 30.452 48.993 30.2446L27.5001 11.1153L6.00709 30.2446C5.75361 30.4689 5.42046 30.5823 5.08851 30.5642C4.75295 30.5449 4.4367 30.3917 4.2146 30.1409L0.320613 25.7698C0.0502305 25.4659 -0.0475416 25.0668 0.021261 24.6942C0.00315504 24.5977 -0.00288028 24.4976 0.00315504 24.3963C0.0200539 24.0587 0.170937 23.7428 0.42442 23.5173L26.4209 0.32183C26.7239 0.0517226 27.1235 -0.0483617 27.5001 0.0215767C27.8755 -0.0483617 28.275 0.0517226 28.578 0.32183L54.5757 23.5173C54.828 23.7428 54.9813 24.0587 54.997 24.3963C55.0042 24.4976 54.9958 24.5977 54.9789 24.6942C55.0477 25.0668 54.9487 25.4659 54.6783 25.7698L50.7855 30.1409C50.5622 30.3917 50.2472 30.5449 49.9116 30.5642C49.8875 30.5654 49.8621 30.5654 49.838 30.5654" id="Fill-6" fill="#FFFFFF" stroke="none" />
  </g>
  <g id="Oval">
    <path d="M0 0L105 0L105 125L0 125L0 0Z" id="Mask" fill="none" stroke="none" />
    <g clip-path="url(#mask_1)">
      <path d="M71 161C110.212 161 142 124.959 142 80.5C142 36.0411 110.212 0 71 0C31.7878 0 0 36.0411 0 80.5C0 124.959 31.7878 161 71 161Z" transform="translate(-44 -14)" id="Oval" fill="none" stroke="#FFFFFF" stroke-opacity="0.235294119" stroke-width="5" />
    </g>
  </g>
</svg>