<?xml version="1.0" encoding="utf-8" ?>
<svg xmlns="http://www.w3.org/2000/svg" xmlns:xlink="http://www.w3.org/1999/xlink" width="74" height="35">
	<defs>
		<clipPath id="clip_0">
			<rect x="-646" y="-868" width="1020" height="1515" clip-rule="evenodd"/>
		</clipPath>
	</defs>
	<g clip-path="url(#clip_0)">
		<path fill="rgb(255,255,255)" stroke="none" transform="translate(0 0.5)" d="M0 0L74 0L74 35L0 35L0 0Z"/>
	</g>
	<defs>
		<clipPath id="clip_1">
			<rect x="-646" y="-868" width="1020" height="1515" clip-rule="evenodd"/>
		</clipPath>
	</defs>
	<g clip-path="url(#clip_1)">
		<path fill="none" stroke="rgb(170,176,10)" stroke-width="1.5" stroke-linecap="round" stroke-miterlimit="4" transform="translate(18 11)" d="M30 2L0 0"/>
	</g>
	<defs>
		<clipPath id="clip_2">
			<rect x="-646" y="-868" width="1020" height="1515" clip-rule="evenodd"/>
		</clipPath>
	</defs>
	<g clip-path="url(#clip_2)">
		<path fill="none" stroke="rgb(170,176,10)" stroke-width="2" stroke-linecap="round" stroke-linejoin="round" transform="translate(7 5)" d="M60.7751 15.1505C60.7751 15.1505 60.1897 14.3075 60.0625 14.2306C59.9352 14.1537 59.9621 11.8025 59.9104 11.5218C59.8597 11.2401 59.0458 9.86079 55.8923 9.14464C52.7398 8.42949 45.7977 7.86716 45.7977 7.86716C45.7977 7.86716 38.4064 1.96418 37.7783 1.60561C37.1512 1.24804 35.0154 0.532887 32.1163 0.303161C29.2173 0.0724353 16.9859 -0.0544138 14.7478 0.0224947C12.5106 0.0984044 11.2792 1.03229 9.9256 1.91225C7.83454 3.26963 2.87323 6.58968 2.51743 7.35577C2.16063 8.12286 2.13579 9.47724 2.05926 10.525C1.98373 11.5728 2.05926 12.8502 2.05926 12.8502C2.05926 12.8502 0.711598 13.5404 0.431332 14.1287C0.152059 14.716 0 16.3001 0 17.0422C0 17.7834 0.279272 18.7282 0.584385 18.959C0.889498 19.1887 3.25487 19.4953 3.25487 19.4953L5.6421 19.6082C5.62818 19.4474 5.59439 19.2916 5.59439 19.1268C5.59439 16.2422 7.921 13.904 10.7912 13.904C13.6625 13.904 15.9891 16.2422 15.9891 19.1268C15.9891 19.4574 15.9503 19.779 15.8927 20.0926L18.2322 20.2035L43.4125 20.7059L45.7659 20.7059C45.6069 20.2045 45.4986 19.6811 45.4986 19.1268C45.4986 16.2422 47.8262 13.904 50.6954 13.904C53.5666 13.904 55.8933 16.2422 55.8933 19.1268C55.8933 19.6801 55.7849 20.2025 55.6269 20.7019L58.031 20.7009C58.031 20.7009 60.0118 20.6709 60.5713 20.1086C61.1309 19.5463 61.0802 15.8157 60.7751 15.1505Z"/>
	</g>
	<defs>
		<clipPath id="clip_3">
			<rect x="-646" y="-868" width="1020" height="1515" clip-rule="evenodd"/>
		</clipPath>
	</defs>
	<g clip-path="url(#clip_3)">
		<path fill="none" stroke="rgb(170,176,10)" stroke-width="2" stroke-linecap="round" stroke-linejoin="round" transform="translate(12.6743 18.647)" d="M10.4031 5.17697C10.4031 8.03568 8.07384 10.3529 5.20155 10.3529C2.32926 10.3529 0 8.03568 0 5.17697C0 2.31825 2.32926 0 5.20155 0C8.07384 0 10.4031 2.31825 10.4031 5.17697Z"/>
	</g>
	<defs>
		<clipPath id="clip_4">
			<rect x="-646" y="-868" width="1020" height="1515" clip-rule="evenodd"/>
		</clipPath>
	</defs>
	<g clip-path="url(#clip_4)">
		<path fill="none" stroke="rgb(170,176,10)" stroke-width="2" stroke-linecap="round" stroke-linejoin="round" transform="translate(52.8682 18.647)" d="M10.4031 5.17697C10.4031 8.03568 8.07461 10.3529 5.20205 10.3529C2.32948 10.3529 0 8.03568 0 5.17697C0 2.31825 2.32948 0 5.20205 0C8.07461 0 10.4031 2.31825 10.4031 5.17697Z"/>
	</g>

</svg>