<?xml version="1.0" encoding="UTF-8"?>
<svg width="40px" height="33px" viewBox="0 0 40 33" version="1.1" xmlns="http://www.w3.org/2000/svg" xmlns:xlink="http://www.w3.org/1999/xlink">
    <!-- Generator: Sketch 45.2 (43514) - http://www.bohemiancoding.com/sketch -->
    <title>money-125</title>
    <desc>Created with Sketch.</desc>
    <defs></defs>
    <g id="Symbols" stroke="none" stroke-width="1" fill="none" fill-rule="evenodd">
        <g id="cuentas-despliegue" transform="translate(-15.000000, -15.000000)" fill="#346496">
            <path d="M39.3840642,23.6778107 C36.7821307,22.1794837 32.5771483,22.1714282 29.9913259,23.6778107 C27.4055034,25.1761378 27.4216145,27.6169609 30.023548,29.1152879 C32.6254815,30.6136149 36.8304638,30.6136149 39.4082307,29.1152879 C42.0021087,27.6089053 41.9859977,25.1761378 39.3840642,23.6778107 L39.3840642,23.6778107 L39.3840642,23.6778107 Z M38.191847,26.0380786 C37.9662924,26.1105783 37.7487933,26.183078 37.5151831,26.2475222 C37.3782393,26.2877998 37.2976841,26.2958553 37.2332399,26.2636332 C37.2010178,26.2475222 37.1687957,26.2072446 37.1446291,26.1589114 C36.9915742,25.9172458 36.7660196,25.7078022 36.4518543,25.5305807 C36.4196322,25.5064142 36.3793546,25.4903031 36.339077,25.4661366 C36.2424107,25.4178034 36.1376889,25.3694703 36.0168561,25.3453037 C35.5818579,25.2486375 35.2032484,25.4097479 35.2596371,25.6755801 C35.2838036,25.812524 35.3563033,25.9414123 35.4449141,26.0703007 C35.597969,26.2877998 35.7671349,26.5052989 35.8799122,26.7308535 C36.2424107,27.4558504 35.4529696,28.1647363 34.1963082,28.237236 C33.7371435,28.2614026 33.3102008,28.2050139 32.9074247,28.0761256 C32.7302033,28.0197369 32.6013149,28.0197369 32.464371,28.1083477 C32.3354827,28.1889029 32.1904833,28.2694581 32.0535394,28.3500133 C31.9327066,28.422513 31.8038183,28.422513 31.6749299,28.3500133 C31.5863192,28.3016802 31.4977084,28.2533471 31.4090977,28.2050139 C31.3446535,28.1727919 31.2882649,28.1325142 31.2238207,28.0922366 C31.0949324,28.0197369 31.1110434,27.9391817 31.2399317,27.8586265 C31.336598,27.8022379 31.4413198,27.7377937 31.537986,27.681405 C31.7635407,27.5525167 31.7635407,27.5364056 31.5782637,27.3914063 C31.3446535,27.2061293 31.13521,27.0127967 31.0063216,26.7952976 C30.9015998,26.6261317 30.9338219,26.5858541 31.1915986,26.4972433 C31.3929867,26.4327992 31.5863192,26.368355 31.7877072,26.3039108 C31.9327066,26.2555777 32.0132618,26.2475222 32.077706,26.2797443 C32.1099281,26.3039108 32.1421502,26.3361329 32.1663167,26.3925216 C32.3032606,26.6341872 32.5127042,26.8597418 32.7865919,27.0611299 C32.834925,27.093352 32.8832582,27.125574 32.9315913,27.1577961 C33.0765907,27.2464069 33.2457566,27.310851 33.4471447,27.3591842 C33.9385315,27.4719615 34.3976963,27.2705734 34.3413076,26.9644636 C34.3251966,26.8597418 34.2688079,26.7630756 34.2043637,26.6583538 C34.0351978,26.4086326 33.8176987,26.166967 33.6968659,25.9011347 C33.5115889,25.4741921 33.5921441,25.0794715 34.1963082,24.7733617 C34.872972,24.4269743 35.6301911,24.4028077 36.4276877,24.6203068 C36.7579641,24.7089175 36.7579641,24.7089175 37.0076853,24.5639181 C37.096296,24.515585 37.1768512,24.4672519 37.265462,24.4189187 C37.4587945,24.314197 37.5232387,24.314197 37.7165712,24.4189187 C37.7407378,24.4269743 37.7568488,24.4430853 37.7729598,24.4511408 C37.8132375,24.4753074 37.8535151,24.499474 37.8857371,24.5236405 C38.2885132,24.7572507 38.2885132,24.7572507 37.8937927,24.9908608 C37.6118494,25.1519712 37.6118494,25.1600267 37.8454595,25.3453037 C38.0307365,25.4903031 38.1757359,25.6514136 38.2885132,25.812524 C38.377124,25.9253013 38.3449019,25.9897455 38.191847,26.0380786 L38.191847,26.0380786 L38.191847,26.0380786 Z M54.1498355,28.776956 L30.5149348,15.1389577 C30.1927139,14.9536808 29.6610495,14.9536808 29.3388286,15.1389577 L15.2577767,23.3233678 C14.9355558,23.5086448 14.9355558,23.8147546 15.2577767,24.0080871 L38.8846218,37.6460854 C39.2148982,37.8394179 39.7385071,37.8313624 40.060728,37.6460854 L54.1498355,29.4616753 C54.4720563,29.2763983 54.4801118,28.9702885 54.1498355,28.776956 L54.1498355,28.776956 L54.1498355,28.776956 Z M41.8329428,34.4963764 C41.7040544,34.367488 41.542944,34.2547107 41.357667,34.149989 C40.1573943,33.4572141 38.2160135,33.4572141 37.0157408,34.149989 C36.9271301,34.2063776 36.8465748,34.2547107 36.7660196,34.3191549 L20.8483088,25.1197491 C21.0013637,25.055305 21.1463631,24.9908608 21.2833069,24.9103056 C22.4755241,24.2175307 22.4674686,23.0897577 21.2671959,22.3969828 C21.1383075,22.3244831 20.9933081,22.2519834 20.8483088,22.1955948 L27.4135589,18.385333 C27.5182807,18.4658882 27.631058,18.5544989 27.7599464,18.6269986 C28.9602191,19.3197735 30.9096554,19.3197735 32.1018726,18.6269986 C32.2388164,18.5464434 32.3596493,18.4658882 32.4563155,18.3772775 L48.4223595,27.6008498 C48.212916,27.6733495 48.0115279,27.7619603 47.8343064,27.866682 C46.6420892,28.5594569 46.6501448,29.6872299 47.8504175,30.3800048 C48.0356945,30.4847266 48.2451381,30.5733373 48.4626371,30.6538925 L41.8329428,34.4963764 L41.8329428,34.4963764 L41.8329428,34.4963764 Z M43.7582125,31.016391 L42.7190502,31.6205551 C42.5579397,31.7091659 42.300163,31.7172214 42.1390526,31.6205551 L40.3104492,30.5652818 C40.1493387,30.4686155 40.1493387,30.3236162 40.3104492,30.2269499 L41.3496115,29.6227858 C41.5107219,29.534175 41.7684986,29.5261195 41.929609,29.6227858 L43.7582125,30.6780591 C43.9193229,30.7747254 43.9193229,30.9277803 43.7582125,31.016391 L43.7582125,31.016391 L43.7582125,31.016391 Z M29.097163,22.5500377 L28.0580007,23.1542018 C27.8968902,23.2428126 27.6391135,23.2508681 27.4780031,23.1542018 L25.6493997,22.0989285 C25.4882893,22.0022622 25.4882893,21.8572628 25.6493997,21.7605966 L26.688562,21.1564325 C26.8496724,21.0678217 27.1074491,21.0597662 27.2685595,21.1564325 L29.097163,22.2117058 C29.2582734,22.3083721 29.2582734,22.461427 29.097163,22.5500377 L29.097163,22.5500377 L29.097163,22.5500377 Z M52.5548422,32.9738828 L54.3915011,34.0372117 L39.6257298,42.6163423 L39.1423985,42.3424545 L37.7810154,41.5610689 L15,28.3822354 L16.8205479,27.3269621 L39.6096188,40.4896845 L52.5548422,32.9738828 L52.5548422,32.9738828 L52.5548422,32.9738828 Z M52.5226201,37.6219188 L54.359279,38.6852477 L39.6498964,47.2321562 L39.1746206,46.9582685 L37.8132375,46.1768829 L15,32.9738828 L16.8205479,31.9186094 L39.6418409,45.113554 L52.5226201,37.6219188 L52.5226201,37.6219188 L52.5226201,37.6219188 Z" id="money-125"></path>
        </g>
    </g>
</svg>