<svg width="32" height="32" xmlns="http://www.w3.org/2000/svg">
 <g>
  <title>background</title>
  <rect x="-1" y="-1" width="34" height="34" id="canvas_background" fill="none"/>
 </g>

 <g>
  <title>Layer 1</title>
  <path stroke="null" d="m18.146501,25.073896l0,-3.165185q0,-0.233224 -0.164501,-0.391482t-0.389614,-0.158262l-3.324676,0q-0.225112,0 -0.389614,0.158262t-0.164501,0.391482l0,3.165185q0,0.23322 0.164501,0.391482t0.389614,0.158258l3.324676,0q0.225112,0 0.389614,-0.158258t0.164501,-0.391482zm-0.034633,-6.230417l0.311691,-7.646416q0,-0.199908 -0.173162,-0.31652q-0.225107,-0.183245 -0.415581,-0.183245l-3.809529,0q-0.190479,0 -0.415586,0.183245q-0.173162,0.116612 -0.173162,0.349836l0.294374,7.613099q0,0.166587 0.173162,0.27487t0.415581,0.108283l3.203469,0q0.242424,0 0.406925,-0.108283t0.181818,-0.27487zm-0.242424,-15.559377l13.298723,23.455675q0.60606,1.049509 -0.034633,2.099018q-0.294374,0.483107 -0.805195,0.766306t-1.099569,0.283204l-26.59744,0q-0.588744,0 -1.099569,-0.283204t-0.805195,-0.766306q-0.640694,-1.049509 -0.034633,-2.099018l13.298723,-23.455675q0.294369,-0.516423 0.813851,-0.816285t1.125547,-0.299857t1.125542,0.299857t0.813851,0.816285z" id="svg_1" fill="#f9ab20"/>
 </g>
</svg>